<svg width="53" height="51" viewBox="0 0 53 51" fill="none" xmlns="http://www.w3.org/2000/svg">
<ellipse cx="26.25" cy="25.3125" rx="26.25" ry="25.3125" fill="#EC6825"/>
<path fill-rule="evenodd" clip-rule="evenodd" d="M26.4342 39.375C26.4342 39.375 35.9934 30.5561 35.9934 21.7467C35.9934 16.4673 31.7136 12.1875 26.4342 12.1875C21.1548 12.1875 16.875 16.4673 16.875 21.7467C16.875 30.5561 26.4342 39.375 26.4342 39.375ZM32.8677 21.7832C32.8677 25.3162 30.0036 28.1802 26.4706 28.1802C22.9376 28.1802 20.0736 25.3162 20.0736 21.7832C20.0736 18.2502 22.9376 15.3861 26.4706 15.3861C30.0036 15.3861 32.8677 18.2502 32.8677 21.7832Z" fill="white"/>
<path d="M31.6015 21.8166C31.6015 24.6319 29.3192 26.9142 26.5038 26.9142C23.6885 26.9142 21.4062 24.6319 21.4062 21.8166C21.4062 19.0012 23.6885 16.7189 26.5038 16.7189C29.3192 16.7189 31.6015 19.0012 31.6015 21.8166Z" fill="white"/>
</svg>
