<svg width="89" height="73" viewBox="0 0 89 73" fill="none" xmlns="http://www.w3.org/2000/svg">
<path d="M25.9795 2.01758L35.4971 3.8291L36.7021 4.05859L36.2344 5.19336L23.8008 35.3271C26.7944 37.2711 29.4501 39.5199 31.7637 42.0752L32.2568 42.6318L32.2656 42.6406C34.7298 45.5418 36.2356 48.0982 36.4854 50.2539L36.5332 50.6035C36.6161 51.4398 36.4961 52.4154 36.2344 53.4902C35.9314 54.7345 35.4174 56.193 34.707 57.8564L34.7002 57.8711L34.6934 57.8867C33.1374 61.2265 31.2534 64.2469 29.04 66.9443C26.8602 69.601 24.7428 71.3277 22.6797 71.7617C22.0166 71.9102 21.4272 72 20.9395 72C19.9159 72 18.8768 71.7954 17.8291 71.4043C16.8246 71.0293 15.5481 70.4405 14.0107 69.6514L13.9824 69.6367L13.9551 69.6201C11.0293 67.8726 8.27316 65.6941 5.68652 63.0898L5.20703 62.623C2.86652 60.3004 1.39426 58.1593 1.10645 56.2256L1.10352 56.207L1.10156 56.1895C1.03146 55.5614 1.00001 54.5897 1 53.3076C1 51.0578 1.16229 48.6006 1.4834 45.9395C1.80359 43.286 2.18966 41.0076 2.64551 39.1113C3.92287 33.465 6.38691 27.5324 10.0146 21.3164L10.7568 20.0684C14.738 13.3109 19.5249 7.37361 25.1182 2.26172L25.4883 1.92383L25.9795 2.01758ZM76.4209 2.01758L85.9385 3.8291L87.1436 4.05859L86.6758 5.19336L74.2422 35.3271C77.2355 37.271 79.8907 39.5201 82.2041 42.0752L82.6982 42.6318L82.7061 42.6406C85.1982 45.5748 86.7128 48.1562 86.9365 50.3271H86.9355C87.0794 51.2222 86.966 52.2944 86.6748 53.4902C86.3718 54.7345 85.8588 56.1931 85.1484 57.8564L85.1416 57.8711L85.1348 57.8867C83.5788 61.2264 81.6948 64.2469 79.4814 66.9443C77.3014 69.6012 75.1834 71.3278 73.1201 71.7617L73.1211 71.7627C72.4578 71.9112 71.8677 72 71.3799 72C70.3565 72 69.3181 71.7953 68.2705 71.4043C67.266 71.0293 65.9895 70.4405 64.4521 69.6514L64.4229 69.6367L64.3955 69.6201C61.4699 67.8727 58.7144 65.6939 56.1279 63.0898L55.6484 62.623C53.3078 60.3003 51.8347 58.1594 51.5469 56.2256L51.5439 56.207L51.542 56.1895C51.4719 55.5614 51.4414 54.5897 51.4414 53.3076C51.4414 51.0578 51.6027 48.6006 51.9238 45.9395C52.244 43.2859 52.6311 41.0076 53.0869 39.1113C54.4495 33.0884 57.162 26.7394 61.1973 20.0684C65.1785 13.3107 69.9663 7.37368 75.5596 2.26172L75.9287 1.92383L76.4209 2.01758Z" stroke="#EC6825" stroke-width="2"/>
</svg>
