<svg width="28" height="28" viewBox="0 0 28 28" fill="none" xmlns="http://www.w3.org/2000/svg">
<rect width="28" height="28" rx="7" fill="white"/>
<path d="M9.28209 14.7545L5.1831 13.4188C5.1831 13.4188 4.69379 13.2201 4.85093 12.7693C4.88335 12.6764 4.94878 12.5973 5.14455 12.4609C6.05296 11.8278 21.9568 6.11151 21.9568 6.11151C21.9568 6.11151 22.406 5.96033 22.6712 6.06087C22.7925 6.10681 22.8699 6.15871 22.9352 6.34852C22.9589 6.41756 22.9726 6.56429 22.9708 6.71034C22.9696 6.81557 22.9566 6.91317 22.9471 7.06619C22.8502 8.62902 19.9522 20.2932 19.9522 20.2932C19.9522 20.2932 19.7788 20.9757 19.1574 20.999C18.9309 21.0075 18.6558 20.9615 18.327 20.6787C17.1078 19.6298 12.8932 16.7975 11.962 16.1746C11.9095 16.1396 11.8945 16.0939 11.8856 16.0494C11.8725 15.9838 11.9439 15.9023 11.9439 15.9023C11.9439 15.9023 19.2825 9.37911 19.4777 8.69462C19.4928 8.64162 19.436 8.61534 19.3591 8.63826C18.8716 8.81758 10.4222 14.153 9.48979 14.7423C9.43503 14.7766 9.28209 14.7545 9.28209 14.7545Z" fill="#584696"/>
</svg>
