<svg width="28" height="28" viewBox="0 0 28 28" fill="none" xmlns="http://www.w3.org/2000/svg">
<g clip-path="url(#clip0_383_1222)">
<path d="M26.0353 1.96467C24.0707 0 20.9078 0 14.5833 0H13.4167C7.09217 0 3.92933 0 1.96467 1.96467C0 3.92933 0 7.09217 0 13.4167V14.5833C0 20.9078 0 24.0695 1.96467 26.0353C3.92933 28.0012 7.09217 28 13.4167 28H14.5833C20.9078 28 24.0695 28 26.0353 26.0353C28 24.0707 28 20.9078 28 14.5833V13.4167C28 7.09217 28 3.92933 26.0353 1.96467ZM22.7535 19.8333H20.7118C19.9337 19.8333 19.705 19.2127 18.3202 17.8278C17.108 16.66 16.5888 16.5083 16.2867 16.5083C15.8748 16.5083 15.7523 16.625 15.7523 17.2083V19.0388C15.7523 19.5405 15.5925 19.8333 14.294 19.8333C12.131 19.8333 9.75333 18.5197 8.06517 16.0977C5.5335 12.5498 4.84167 9.86767 4.84167 9.3275C4.84167 9.02417 4.95833 8.75 5.54167 8.75H7.5845C8.106 8.75 8.302 8.97867 8.498 9.54333C9.49667 12.4518 11.1813 14.994 11.8732 14.994C12.1322 14.994 12.2512 14.8738 12.2512 14.2158V11.2093C12.1753 9.82567 11.4392 9.71133 11.4392 9.219C11.4392 8.9915 11.634 8.75 11.9583 8.75H15.1678C15.6007 8.75 15.7512 8.981 15.7512 9.50017V13.545C15.7512 13.9767 15.939 14.1283 16.0685 14.1283C16.3287 14.1283 16.5445 13.9767 17.0205 13.5007C18.4917 11.8568 19.53 9.32633 19.53 9.32633C19.6607 9.023 19.8987 8.74883 20.419 8.74883H22.4607C23.0778 8.74883 23.2085 9.06617 23.0778 9.499C22.8177 10.689 20.3303 14.1925 20.3303 14.1925C20.1133 14.539 20.027 14.7117 20.3303 15.1013C20.5473 15.4047 21.2602 16.0102 21.7362 16.5725C22.6135 17.5595 23.275 18.3913 23.4593 18.9653C23.6297 19.5417 23.3368 19.8333 22.7535 19.8333Z" fill="white"/>
</g>
<defs>
<clipPath id="clip0_383_1222">
<rect width="28" height="28" fill="white"/>
</clipPath>
</defs>
</svg>
