<svg width="40" height="29" viewBox="0 0 40 29" fill="none" xmlns="http://www.w3.org/2000/svg">
<path d="M38.9664 4.37788C38.5087 2.65492 37.1605 1.29678 35.4475 0.835777C32.3449 2.96525e-07 19.8994 0 19.8994 0C19.8994 0 7.454 2.96525e-07 4.34969 0.835777C2.63833 1.29678 1.29015 2.65326 0.83246 4.37788C0 7.50209 0 14.0192 0 14.0192C0 14.0192 0 20.5362 0.83246 23.6604C1.29015 25.3834 2.63833 26.7415 4.35134 27.2025C7.454 28.0383 19.8994 28.0383 19.8994 28.0383C19.8994 28.0383 32.3449 28.0383 35.4492 27.2025C37.1605 26.7415 38.5087 25.385 38.9681 23.6604C39.7989 20.5362 39.7989 14.0192 39.7989 14.0192C39.7989 14.0192 39.7989 7.50209 38.9664 4.37788ZM15.83 19.9376V8.10073L26.2308 14.0192L15.83 19.9376Z" fill="white"/>
</svg>
