<svg width="57" height="57" viewBox="0 0 57 57" fill="none" xmlns="http://www.w3.org/2000/svg">
<circle cx="28.5" cy="28.5" r="28.5" fill="#EC6825"/>
<path d="M24.2292 24.0067H17.992C16.8938 24.0067 16 24.91 16 26.0213V38.0813C16 39.1926 17.1732 38.9846 18.2714 38.9846H24.5086C25.6068 38.9846 26.2213 39.1926 26.2213 38.0813V26.0213C26.2213 24.9111 25.3275 24.0067 24.2292 24.0067ZM43 26.9407C43 25.1157 40.5798 24.0067 39.518 24.0067H34.7321C35.5442 20.4268 34.5629 18.3835 33.8724 17.4595C33.1887 16.5459 32.2461 16 31.35 16C30.6539 16 30.0542 16.3321 29.7112 16.9148C29.6587 17.0041 29.6309 17.1062 29.6306 17.2101V20.297C29.1911 21.5805 28.7581 22.6848 28.2641 23.6251C27.7517 24.6005 27.3592 25.6578 27.3592 26.7597V38.2217C27.3592 38.5835 27.5879 38.9489 27.9498 38.9489H38.4288C38.9217 38.9489 39.401 38.6892 39.8246 38.2031C40.4106 37.5227 40.8024 36.4747 40.8172 35.615C41.6667 34.9692 42.071 33.7901 41.996 32.1673C42.9103 31.2066 42.8535 29.8425 42.5559 29.0001C42.9296 28.4599 43 27.544 43 26.9407Z" fill="white"/>
</svg>
