<svg width="57" height="57" viewBox="0 0 57 57" fill="none" xmlns="http://www.w3.org/2000/svg">
<circle cx="28.5" cy="28.5" r="28.5" fill="#EC6825"/>
<path d="M18.0833 24.3333V23.2917C18.0833 19.8396 20.8812 17.0417 24.3333 17.0417H32.6667C36.1187 17.0417 38.9167 19.8396 38.9167 23.2917V24.3333C36.6156 24.3333 34.75 26.199 34.75 28.5V31.625H22.25V28.5C22.25 26.199 20.3844 24.3333 18.0833 24.3333ZM38.5667 26.4448C37.5427 26.6115 36.8333 27.5729 36.8333 28.6115V32.6667C36.8333 33.2417 36.3667 33.7083 35.7917 33.7083H21.2083C20.6333 33.7083 20.1667 33.2417 20.1667 32.6667V28.6115C20.1667 27.574 19.4573 26.6115 18.4333 26.4448C17.1281 26.2323 16 27.2344 16 28.5V32.6667C16 34.3708 16.8187 35.8833 18.0833 36.8333V38.9167C18.0833 39.4917 18.55 39.9583 19.125 39.9583C19.7 39.9583 20.1667 39.4917 20.1667 38.9167V37.7708C20.5031 37.8396 20.8521 37.875 21.2083 37.875H35.7917C36.1479 37.875 36.4969 37.8396 36.8333 37.7708V38.9167C36.8333 39.4917 37.3 39.9583 37.875 39.9583C38.45 39.9583 38.9167 39.4917 38.9167 38.9167V36.8333C40.1812 35.8833 41 34.3708 41 32.6667V28.5C41 27.2344 39.8719 26.2333 38.5667 26.4448Z" fill="white"/>
</svg>
