<svg width="57" height="57" viewBox="0 0 57 57" fill="none" xmlns="http://www.w3.org/2000/svg">
<circle cx="28.5" cy="28.5" r="28.5" fill="#EC6825"/>
<path d="M28.4385 16C33.0989 16 36.8769 19.7781 36.877 24.4385C36.877 32.215 28.4385 40 28.4385 40C28.4311 39.9932 20 32.2116 20 24.4385C20 19.7781 23.7781 16 28.4385 16ZM28.4707 18.8232C25.3519 18.8232 22.8232 21.3519 22.8232 24.4707C22.8233 27.5894 25.352 30.1172 28.4707 30.1172C31.5894 30.1171 34.1171 27.5894 34.1172 24.4707C34.1172 21.352 31.5894 18.8233 28.4707 18.8232Z" fill="white"/>
<circle cx="28.5" cy="24.5" r="4.5" fill="white"/>
</svg>
