<svg width="18" height="18" viewBox="0 0 18 18" fill="none" xmlns="http://www.w3.org/2000/svg">
<g clip-path="url(#clip0_220_235)">
<path d="M1.49992 18H3.12892C3.4245 18.0008 3.71731 17.943 3.99038 17.8298C4.26344 17.7167 4.51133 17.5504 4.71967 17.3407L10.9904 11.0707C12.191 11.3805 13.4601 11.287 14.6022 10.8045C15.7444 10.3221 16.6962 9.47747 17.3112 8.40085C17.9261 7.32422 18.17 6.07528 18.0053 4.8464C17.8406 3.61752 17.2765 2.47687 16.3998 1.60015C15.523 0.723431 14.3824 0.159277 13.1535 -0.00541306C11.9246 -0.170103 10.6757 0.0738068 9.59906 0.688745C8.52243 1.30368 7.67785 2.25554 7.1954 3.39769C6.71295 4.53985 6.61941 5.80894 6.92917 7.00949L5.99992 7.93874V9.74999H3.74992V12H1.93942L0.659166 13.2802C0.449562 13.4888 0.283379 13.7368 0.170223 14.01C0.057066 14.2832 -0.000818253 14.5761 -8.39233e-05 14.8717V16.5C-8.39233e-05 16.8978 0.157951 17.2793 0.439257 17.5607C0.72056 17.842 1.10209 18 1.49992 18ZM1.49992 14.8717C1.49984 14.7731 1.51921 14.6755 1.55692 14.5844C1.59462 14.4932 1.64993 14.4105 1.71967 14.3407L2.56042 13.5H5.24992V11.25H7.49992V8.56124L8.65867 7.40249C8.39478 6.84676 8.25529 6.24017 8.24992 5.62499C8.24992 4.80914 8.49184 4.01162 8.9451 3.33327C9.39837 2.65491 10.0426 2.1262 10.7963 1.81399C11.5501 1.50178 12.3795 1.42009 13.1797 1.57925C13.9798 1.73842 14.7148 2.13129 15.2917 2.70818C15.8686 3.28507 16.2615 4.02007 16.4207 4.82025C16.5798 5.62042 16.4981 6.44982 16.1859 7.20356C15.8737 7.95731 15.345 8.60154 14.6666 9.0548C13.9883 9.50806 13.1908 9.74999 12.3749 9.74999C11.7555 9.79048 11.1378 9.64864 10.5982 9.34199L3.65917 16.2802C3.51813 16.4203 3.32767 16.4992 3.12892 16.5H1.49992V14.8717ZM14.2499 4.49999C14.2499 4.35166 14.2059 4.20665 14.1235 4.08331C14.0411 3.95998 13.924 3.86385 13.7869 3.80708C13.6499 3.75032 13.4991 3.73547 13.3536 3.7644C13.2081 3.79334 13.0745 3.86477 12.9696 3.96966C12.8647 4.07455 12.7933 4.20819 12.7643 4.35367C12.7354 4.49916 12.7502 4.64996 12.807 4.787C12.8638 4.92405 12.9599 5.04118 13.0832 5.1236C13.2066 5.20601 13.3516 5.24999 13.4999 5.24999C13.6988 5.24999 13.8896 5.17098 14.0302 5.03032C14.1709 4.88967 14.2499 4.6989 14.2499 4.49999Z" fill="white"/>
</g>
<defs>
<clipPath id="clip0_220_235">
<rect width="18" height="18" fill="white" transform="matrix(-1 0 0 -1 18 18)"/>
</clipPath>
</defs>
</svg>
