<svg width="77" height="72" viewBox="0 0 77 72" fill="none" xmlns="http://www.w3.org/2000/svg">
<g clip-path="url(#clip0_385_324)">
<path d="M16.4715 46.7064C17.4924 46.7064 18.32 47.5143 18.32 48.511C18.32 49.5078 17.4924 50.3159 16.4715 50.3159H10.7335L5.00289 68.3903H71.8702L65.6479 50.3159H61.349C60.3281 50.3159 59.5005 49.5078 59.5005 48.511C59.5005 47.5143 60.3281 46.7064 61.349 46.7064H68.2925L77 71.9998H0L8.01958 46.7064H16.4715ZM38.4683 12.274L26.8629 23.373L29.6934 24.8226L38.3938 15.9057L47.2433 24.8226L50.0739 23.373L38.4683 12.274ZM30.3142 25.5403L38.4833 17.5641L46.6276 25.5403V33.3662L40.6784 33.3661V27.8384H36.2138V33.3662H30.3142V25.5403ZM39.1828 58.9281C42.3241 56.9473 45.1531 54.567 47.6283 51.918C53.1289 46.0309 56.8358 38.855 58.3245 31.8081C59.7888 24.876 59.1059 18.0983 55.8611 12.8723C54.922 11.3589 53.7647 9.98534 52.425 8.79378C48.5032 5.29971 44.0108 3.63263 39.4944 3.59562C34.7419 3.55642 29.9163 5.31087 25.6491 8.63064C23.8312 10.0452 22.3432 11.6757 21.1748 13.4714C18.1789 18.0757 17.2761 23.7928 18.2657 29.7808C19.2756 35.8933 22.2531 42.2819 26.9902 48.0871C30.2448 52.0755 34.3312 55.7819 39.1828 58.9281ZM50.3572 54.3431C47.4106 57.4964 43.9768 60.3109 40.111 62.5989L39.1285 63.1806L38.1687 62.5848C32.5409 59.094 27.8226 54.8879 24.1022 50.3288C18.9718 44.0415 15.7376 37.0656 14.6271 30.3447C13.4958 23.4987 14.5617 16.9098 18.0559 11.5397C19.4372 9.41697 21.1991 7.48704 23.3531 5.81101C28.2787 1.97861 33.9149 -0.0455815 39.5233 0.000526377C44.9375 0.0451659 50.2858 2.01048 54.9087 6.12906C56.5305 7.57353 57.8936 9.21506 59.0088 11.0111C62.7592 17.0516 63.5781 24.7446 61.9342 32.527C60.3145 40.195 56.3019 47.9807 50.3572 54.3431Z" fill="#EC6825"/>
</g>
<defs>
<clipPath id="clip0_385_324">
<rect width="77" height="72" fill="white"/>
</clipPath>
</defs>
</svg>
