<svg width="79" height="82" viewBox="0 0 79 82" fill="none" xmlns="http://www.w3.org/2000/svg">
<path d="M62.9151 48.0407C62.9007 48.1534 62.8649 48.266 62.8075 48.3654C62.743 48.6173 62.7143 48.9022 62.7143 49.2137C62.7143 49.2468 62.7215 49.2733 62.7215 49.3065V69.9495C63.0011 70.599 63.3525 71.0827 63.7684 71.3876C64.1556 71.6725 64.6288 71.8117 65.2096 71.7852C65.2526 71.7786 65.2885 71.7786 65.3315 71.7786H71.7346C71.749 71.7786 71.7705 71.7786 71.7848 71.7786C72.7815 71.825 73.5057 71.5731 73.9861 71.0629C74.5311 70.4863 74.8466 69.5453 74.9541 68.2928V68.2795L76.9045 49.6511C76.9045 49.6246 76.9045 49.5914 76.9117 49.5649C77.0479 48.5046 76.7969 47.8154 76.2305 47.4178C75.5851 46.9539 74.5024 46.7617 73.1114 46.7683C73.0755 46.7683 73.0468 46.775 73.011 46.775H65.7976V46.7683C64.6933 46.7683 63.8903 46.9738 63.3955 47.3846C63.1876 47.5636 63.0298 47.7756 62.9151 48.0407ZM35.6246 17.8813H45.362C45.742 17.8813 46.0503 18.1596 46.0503 18.5042V25.5421C46.0503 25.8867 45.742 26.165 45.362 26.165H35.6246C35.2446 26.165 34.9363 25.8867 34.9363 25.5421V18.5042C34.9363 18.1596 35.2446 17.8813 35.6246 17.8813ZM44.6736 22.6461H41.0598V24.9192H44.6736V22.6461ZM39.7117 22.6461H36.313V24.9192H39.7117V22.6461ZM36.313 21.4002H39.7117V19.1272H36.313V21.4002ZM41.0598 21.4002H44.6736V19.1272H41.0598V21.4002ZM16.9673 42.0632V25.6547C15.8631 26.0457 14.8377 26.0524 13.9772 25.7873C13.3104 25.5819 12.7439 25.2041 12.3281 24.7203C11.9122 24.2366 11.6469 23.6468 11.568 23.004C11.4461 22.0033 11.7688 20.8568 12.7009 19.7965C12.7439 19.7435 12.8013 19.6905 12.8587 19.6507L39.7476 0.240263C40.0918 -0.0579514 40.6367 -0.0844594 41.0167 0.193874L67.963 19.5513C68.0061 19.5778 68.0419 19.6109 68.0778 19.6507C69.3254 20.8899 69.6337 22.2684 69.3326 23.4347C69.182 24.0046 68.888 24.5282 68.4793 24.9523C68.0706 25.3764 67.5471 25.7078 66.952 25.9066C66.0055 26.2247 64.8869 26.2114 63.754 25.7144V41.3077L61.7822 39.8299V24.6342C61.7822 24.5745 61.7893 24.5149 61.8037 24.4619L40.5865 9.22645L18.9105 24.4685C18.932 24.5414 18.9463 24.6209 18.9463 24.7005V41.5728L16.9673 42.0632ZM14.1708 21.0026C13.6474 21.6322 13.461 22.2617 13.5255 22.7985C13.5614 23.1034 13.6833 23.3751 13.8697 23.5938C14.0489 23.8058 14.2999 23.9715 14.6011 24.0643C15.1173 24.2233 15.777 24.1836 16.5371 23.8522L39.9914 7.35764C40.2782 7.15883 40.6367 7.11907 40.945 7.23173C41.1458 7.30463 41.3466 7.4703 41.5187 7.58959L63.9906 23.7263C63.9978 23.7329 64.0121 23.7396 64.0193 23.7462C64.8511 24.3028 65.6542 24.389 66.2708 24.1836C66.5576 24.0908 66.8086 23.9317 67.0022 23.7263C67.1958 23.5209 67.3392 23.2757 67.4109 23.004C67.5687 22.4009 67.3822 21.6653 66.6795 20.9363L40.4144 2.06931L14.1708 21.0026ZM34.1117 32.0697H45.9213C46.4519 32.0697 46.8821 32.4805 46.8821 32.9842V36.8676L44.9676 36.2513V33.8987H35.0653V36.2513L33.1508 36.8676V32.9842C33.1508 32.4805 33.5811 32.0697 34.1117 32.0697ZM55.8594 70.8839C55.7017 70.7514 55.5941 70.5725 55.5511 70.3736L45.2616 53.2561C44.1215 51.4934 43.089 51.447 42.0923 51.997C41.3896 52.388 40.6439 53.0176 39.8982 53.6471C39.4464 54.0249 39.0019 54.4092 38.6147 54.6942L36.8507 56.0461L36.8364 56.0527C35.5529 57.0136 34.0973 57.5239 32.7206 57.63C31.8171 57.6962 30.9352 57.5902 30.1464 57.3185C29.329 57.0335 28.612 56.5763 28.067 55.9533C27.4791 55.284 27.099 54.4291 27.0058 53.4152H27.013C26.9915 53.1766 27.0704 52.9248 27.2496 52.726L32.8712 46.543C31.6881 46.5298 30.6412 46.6755 29.6589 46.9605C28.1603 47.3913 26.762 48.1467 25.2276 49.1076C25.0555 49.2336 24.8332 49.3131 24.5894 49.3131H18.1002V60.6187L18.1289 67.8488H21.8933C22.2519 67.8488 22.596 68.0211 22.7896 68.3259L27.4647 75.8674C28.1459 76.9675 28.7482 77.9151 29.5083 78.5447C30.2182 79.1279 31.1431 79.4924 32.57 79.5321C33.1078 79.5454 33.6169 79.4592 34.1045 79.2737C34.4057 79.161 34.6996 79.0086 34.9865 78.8098L31.9534 73.5678C31.6881 73.104 31.8745 72.5274 32.3764 72.2822C32.8784 72.037 33.5022 72.2093 33.7675 72.6732L37.0659 78.3724C38.292 78.949 39.4034 79.1279 40.4073 78.9291C41.3251 78.7435 42.1855 78.2399 42.9958 77.4181L38.249 70.5261C37.9406 70.0821 38.0841 69.4989 38.5645 69.2139C39.0449 68.929 39.6759 69.0615 39.9842 69.5055L44.9891 76.7687C45.8639 77.1 46.71 77.1729 47.5131 76.9675C48.2803 76.7753 49.0476 76.318 49.8148 75.5825L45.2831 67.6897C45.0178 67.2258 45.2042 66.6493 45.7133 66.3975C46.2153 66.1523 46.8391 66.3246 47.1116 66.7951L51.801 74.9595C52.4105 75.2842 53.1203 75.3704 53.7944 75.271C54.3895 75.1782 54.956 74.9463 55.4292 74.6017C55.8809 74.2703 56.2323 73.8396 56.4044 73.3492C56.5908 72.819 56.5765 72.2027 56.2681 71.5267L55.8594 70.8839ZM57.2218 69.2272H60.6564V49.3131C60.6564 49.2866 60.6564 49.2601 60.6564 49.2402C60.6564 48.9287 60.6779 48.6371 60.7209 48.3588L57.229 46.205C57.2075 46.1918 57.1931 46.1785 57.1716 46.1653C56.7199 45.8803 56.1749 45.5291 55.6228 45.1778C53.6366 43.8922 51.593 42.5668 49.3917 42.0367C48.2015 41.7451 46.8247 41.5529 45.4265 41.533C44.2004 41.5131 42.9527 41.6192 41.7768 41.8975C41.0741 42.0632 40.4001 42.2951 39.7691 42.6066C39.2098 42.8783 38.6864 43.2163 38.2275 43.6139L35.8828 46.1918C35.811 46.3177 35.7107 46.4303 35.5888 46.5165L29.1211 53.614C29.2143 54.0646 29.4079 54.449 29.6732 54.7538C29.9815 55.1051 30.3902 55.3702 30.8635 55.5292C31.3654 55.7015 31.939 55.7678 32.5485 55.7214C33.538 55.6485 34.5849 55.2707 35.5314 54.5683L37.2953 53.2164C37.747 52.8718 38.1271 52.5537 38.4999 52.2356C39.3317 51.5331 40.1563 50.8373 41.0239 50.3601C43.0388 49.2534 45.0393 49.2137 47.0255 52.2886L47.047 52.3217L57.2218 69.2272ZM61.0364 71.1357H58.2902C58.663 72.1364 58.6415 73.0907 58.3475 73.9323C58.0464 74.8005 57.4512 75.5361 56.6984 76.0927C55.9598 76.6361 55.0563 77.0073 54.117 77.1464C53.192 77.2856 52.2312 77.2127 51.3349 76.8681C50.2952 77.8754 49.1981 78.5116 48.0509 78.8032C46.9036 79.0948 45.7348 79.0351 44.5589 78.6574C43.4403 79.8038 42.207 80.5196 40.8447 80.7913C39.4608 81.0696 37.9837 80.8774 36.4205 80.1948C35.9329 80.5461 35.4238 80.8244 34.8932 81.0298C34.1403 81.3214 33.3516 81.454 32.5198 81.4275C30.5408 81.3744 29.2071 80.831 28.1459 79.9563C27.1349 79.1213 26.4537 78.0477 25.6865 76.8084L21.3054 69.7507H17.9066C17.713 70.6652 17.3688 71.434 16.8526 72.0503C15.9849 73.0841 14.7158 73.6275 12.959 73.5944C12.9375 73.5944 12.9232 73.5944 12.9017 73.5944H7.07934C5.61658 73.813 4.35459 73.4817 3.37225 72.428C2.49746 71.4936 1.90232 69.9827 1.65136 67.756C1.64419 67.7295 1.64419 67.703 1.63702 67.6765L0.109727 50.1481C-0.191429 48.2528 0.138409 46.9207 0.963002 46.0062C1.79477 45.0851 3.04241 44.6676 4.58404 44.6013C4.62707 44.5947 4.67009 44.5947 4.71311 44.5947H12.5503V44.6013C14.0274 44.588 15.3038 44.8134 16.2718 45.3899C17.0462 45.8538 17.6055 46.5099 17.8923 47.3979H24.2739C25.8801 46.3972 27.3787 45.6152 29.0422 45.1315C30.6699 44.6609 32.4195 44.4953 34.5132 44.7272L36.65 42.3746C36.6858 42.3282 36.7289 42.2819 36.779 42.2421C37.3885 41.7119 38.0697 41.2679 38.8011 40.9101C39.5683 40.5323 40.4001 40.2474 41.2534 40.0419C42.6157 39.7172 44.057 39.5913 45.4552 39.6178C47.0399 39.6443 48.5815 39.863 49.9152 40.1811C52.4607 40.7974 54.662 42.2222 56.7987 43.6073C57.2792 43.9187 57.7452 44.2236 58.3117 44.5682C58.3332 44.5814 58.3475 44.588 58.3691 44.6013L61.4667 46.5099C61.6244 46.3111 61.8037 46.1255 62.0044 45.9598C62.8936 45.2242 64.1627 44.8598 65.7904 44.8598V44.8531H73.0038C73.0325 44.8531 73.0612 44.8531 73.0898 44.8598C74.9398 44.8531 76.4384 45.1646 77.4781 45.9068C78.6397 46.7286 79.1775 47.9877 78.948 49.7902C78.948 49.8035 78.9409 49.8234 78.9409 49.8366L76.9977 68.4452C76.8543 70.1086 76.3739 71.4141 75.5278 72.3154C74.6243 73.2763 73.3695 73.7534 71.7203 73.6871H65.31C64.1986 73.7402 63.2593 73.4618 62.4705 72.8786C61.8969 72.4545 61.4165 71.8713 61.0364 71.1357ZM9.001 63.9057C9.76823 63.9057 10.3921 64.4823 10.3921 65.1913C10.3921 65.9004 9.76823 66.477 9.001 66.477C8.23377 66.477 7.60994 65.9004 7.60994 65.1913C7.60994 64.4823 8.23377 63.9057 9.001 63.9057ZM69.7269 63.9057C70.4942 63.9057 71.118 64.4823 71.118 65.1913C71.118 65.9004 70.4942 66.477 69.7269 66.477C68.9597 66.477 68.3359 65.9004 68.3359 65.1913C68.3359 64.4823 68.9597 63.9057 69.7269 63.9057ZM16.0423 58.4119L16.0065 48.3522C16.0065 48.3323 16.0065 48.3124 16.0065 48.2925C15.8917 47.663 15.5977 47.2455 15.1604 46.9804C14.5652 46.6225 13.6689 46.4834 12.5647 46.4966H12.5503V46.5032H4.72028C4.70594 46.5032 4.6916 46.5032 4.67726 46.5032C3.70926 46.543 2.96354 46.7617 2.54766 47.2256C2.10309 47.716 1.94534 48.5709 2.16046 49.8963C2.16763 49.9228 2.16763 49.9493 2.16763 49.9758L3.70209 67.524V67.5572C3.91003 69.373 4.33308 70.5393 4.93539 71.1821C5.40864 71.6924 6.06114 71.8382 6.83554 71.7057C6.89291 71.6924 6.95744 71.6924 7.0148 71.6924V71.6858H12.8945C12.9304 71.6858 12.9662 71.6858 13.0021 71.6924C14.0418 71.7057 14.7588 71.4207 15.2105 70.8839C15.7412 70.2544 15.9921 69.2669 16.0351 67.9946L16.0423 58.4119Z" fill="#EC6825"/>
</svg>
