<svg width="76" height="77" viewBox="0 0 76 77" fill="none" xmlns="http://www.w3.org/2000/svg">
<path d="M60.8449 0.284367C60.4556 0.464073 60.0662 0.808506 59.8116 1.19786C59.4522 1.73698 59.3774 2.00653 59.3324 3.17461L59.2576 4.5224L55.7982 4.43254C43.9527 4.10309 30.2053 3.90841 29.1271 4.05816C27.0006 4.34269 24.9041 5.13639 23.1969 6.30447C21.9988 7.09816 20.1569 8.94013 19.438 10.0333C18.3748 11.6656 13.6575 20.1567 13.3281 21.0402C12.8639 22.2832 12.7441 24.6942 13.1035 26.042C13.4479 27.3898 16.5927 33.5896 17.3565 34.4731C18.2101 35.4316 19.6028 36.3301 20.8457 36.7045C21.6394 36.9591 22.0587 37.1837 22.5679 37.6928C24.964 40.014 28.4233 41.0473 31.598 40.3734C32.1372 40.2536 32.5864 40.1788 32.6014 40.1937C32.6164 40.2087 33.1405 40.9275 33.7545 41.7811C34.3835 42.6347 35.0424 43.4284 35.2371 43.5332C35.8061 43.8477 36.3452 43.7579 36.9143 43.2487L37.4534 42.7845L41.0924 46.3935L44.7165 50.0176H46.7531C48.3854 50.0176 48.8197 49.9727 48.9695 49.7929C49.1043 49.6282 49.1492 48.9993 49.1342 47.5766L49.1043 45.5998L45.4952 41.9758L41.8861 38.3518L42.3504 37.8126C42.8745 37.2286 42.9793 36.5248 42.6199 36.0156C42.5151 35.8509 41.6914 35.2069 40.8229 34.5929C39.3852 33.5746 39.2355 33.4398 39.3253 33.0954C39.505 32.3317 39.6847 31.0588 39.6847 30.5047V29.9206L42.7247 30.0554C44.387 30.1153 47.0975 30.1752 48.7448 30.1602C51.5752 30.1602 51.7998 30.1303 52.9379 29.7559C54.72 29.1569 56.3074 28.1535 57.9098 26.6111L59.3025 25.2633V26.1618C59.3025 27.3748 59.7667 28.2434 60.6503 28.7076C61.2942 29.0521 61.3541 29.0521 66.5206 29.0521C71.4325 29.0521 71.777 29.0371 72.3311 28.7526C73.0648 28.3782 73.4842 27.7941 73.6788 26.8507C73.7837 26.3715 73.8286 22.0735 73.7986 14.0767L73.7537 2.02151L73.3494 1.31767C73.0648 0.838459 72.7354 0.538948 72.2861 0.31432C71.6721 0.0148125 71.4176 -0.000164032 66.5506 -0.000164032C61.8932 -0.000164032 61.429 0.029789 60.8449 0.284367ZM71.8668 2.03649C72.1364 2.38092 72.1813 2.65048 72.1813 3.98328V5.54073H66.5655H60.9498V3.86348C60.9498 2.5157 60.9947 2.14132 61.2043 1.91668C61.429 1.6621 61.7884 1.64713 66.5056 1.64713H71.5673L71.8668 2.03649ZM44.3271 5.76535C51.3655 5.90013 57.6252 6.03491 58.2243 6.07984L59.3025 6.16969V14.511V22.8672L57.5803 24.6792C55.2142 27.1502 53.7466 28.0337 51.2607 28.5129C49.9429 28.7675 49.0893 28.7376 33.7695 28.0787C28.588 27.8391 28.1837 27.8091 27.4648 27.4796C24.9789 26.3715 24.9939 22.9721 27.4798 21.6692C28.1238 21.3397 27.1354 21.3847 41.5117 20.9803C44.9411 20.8905 46.3338 20.8006 46.4985 20.6658C46.7831 20.4262 46.7831 19.7074 46.4985 19.4678C46.3039 19.3031 44.7913 19.3031 38.5915 19.4528C34.3685 19.5577 30.1454 19.6924 29.202 19.7673C27.3151 19.8871 26.6711 20.1118 25.6378 21.0103C25.3383 21.2798 24.5896 21.819 23.9906 22.2233C23.3915 22.6276 22.5679 23.3315 22.1486 23.7957C21.1902 24.8739 20.1569 26.9256 19.8274 28.3931C19.483 29.9805 19.5878 32.152 20.1119 33.6944C20.3216 34.3084 20.4713 34.8326 20.4564 34.8625C20.4264 34.8775 20.052 34.6229 19.5878 34.3084C18.5096 33.5297 17.9854 32.721 16.1884 29.0521C14.2715 25.1435 14.0619 24.0952 14.7807 21.789C15.0503 20.9354 20.067 11.9202 21.0404 10.5575C23.1519 7.59235 26.8958 5.60062 30.4749 5.5557C31.0589 5.54073 37.2887 5.64555 44.3271 5.76535ZM72.1813 16.9969C72.1813 26.5062 72.1663 26.8207 71.8968 27.0903C71.732 27.255 71.3726 27.4347 71.1031 27.4796C70.8335 27.5246 68.5573 27.5545 66.0713 27.5246L61.5188 27.4796L61.2343 27.1202C60.9647 26.7908 60.9498 26.4014 60.9498 16.9819V7.18801H66.5655H72.1813V16.9969ZM24.2451 26.2517C24.3799 26.5811 24.35 26.8657 24.0954 27.5994C23.3766 29.726 24.2152 31.7476 26.2668 32.8408C26.746 33.0954 27.1354 33.1703 28.0788 33.1703C29.1421 33.1703 29.3667 33.1254 30.1005 32.706C31.0739 32.152 31.8376 31.2235 32.0922 30.28L32.2719 29.6061L34.1439 29.711C35.1772 29.7559 36.465 29.8008 37.0341 29.8008H38.0375V30.7143C38.0375 31.2085 37.9326 32.0771 37.7978 32.6461C37.4834 34.0538 37.6032 34.2485 39.55 35.6412L41.1374 36.7793L40.718 37.2885C40.4036 37.6629 40.2838 37.9624 40.2838 38.3967C40.2838 38.9807 40.3886 39.1005 43.9527 42.6796L47.6217 46.3636V47.4418V48.52H46.5435H45.4652L41.7813 44.8511C38.307 41.3918 38.0674 41.1821 37.5433 41.1821C37.1539 41.1821 36.8544 41.3019 36.48 41.6314L35.9559 42.0956L35.1622 41.0024C34.7129 40.4034 34.2038 39.6846 34.0091 39.4C33.455 38.6213 32.8859 38.4566 31.8077 38.7411C30.5048 39.1005 28.4682 39.0706 27.1803 38.6662C24.2302 37.7527 21.879 35.2369 21.28 32.3766C20.7409 29.7709 21.4597 26.9705 23.1819 24.9937L23.8857 24.2L23.9906 25.0237C24.0505 25.4729 24.1553 26.027 24.2451 26.2517ZM26.0572 28.6028C26.7909 29.1269 27.7194 29.3665 29.2469 29.4564C30.0406 29.5013 30.6995 29.5762 30.6995 29.6061C30.6995 30.0105 29.8609 30.9689 29.217 31.2984C28.2436 31.8075 26.6112 31.3283 25.9374 30.3399C25.6079 29.8607 25.2934 28.3033 25.533 28.3033C25.5929 28.3033 25.8325 28.4381 26.0572 28.6028Z" fill="white"/>
<path d="M65.0681 18.4047C62.2677 19.6926 62.3276 23.7359 65.1729 24.919C66.3859 25.4281 68.2878 25.0238 69.1414 24.0953C70.7887 22.2983 70.1298 19.2583 67.8835 18.3148C67.1946 18.0303 65.7869 18.0752 65.0681 18.4047ZM67.569 20.022C68.6921 20.5761 68.7221 22.5529 67.6289 23.2567C67.4342 23.3915 66.9999 23.5413 66.6854 23.5862C65.2478 23.8108 64.0797 22.1485 64.7536 20.8457C65.3227 19.7375 66.3859 19.423 67.569 20.022Z" fill="white"/>
<path d="M33.0955 33.3351C32.7661 33.6346 32.3617 34.0988 32.182 34.3834C31.8825 34.8626 31.8825 34.9225 32.1071 35.2669C32.5115 35.8809 33.0206 35.7611 33.9491 34.8476C34.7877 33.994 34.9525 33.4699 34.5032 33.0356C34.1438 32.6612 33.7395 32.7511 33.0955 33.3351Z" fill="white"/>
<path d="M21.9239 43.788C20.8906 44.0276 19.8723 44.5218 16.6975 46.3188L14.4512 47.6067L14.3165 47.2023C14.0918 46.4985 13.4629 45.7947 12.789 45.4952C12.175 45.2256 11.8006 45.2106 6.9935 45.2555C1.27291 45.3005 1.31783 45.3005 0.494187 46.3787L0.0748768 46.9178L0.0299507 59.6469L0 72.3759L0.374384 73.0199C0.61399 73.4242 0.988374 73.7986 1.34778 73.9783C1.90187 74.2628 2.23133 74.2778 7.21813 74.2778C12.4296 74.2778 12.5194 74.2628 13.1034 73.9334C14.0768 73.3793 14.3764 72.6904 14.3764 70.8634C14.3764 69.92 14.4363 69.3359 14.5261 69.3359C14.616 69.3359 18.7342 70.8934 23.6761 72.7953C28.6179 74.6821 33.1105 76.3444 33.6646 76.4492C34.9375 76.7338 36.6298 76.7338 37.9176 76.4642C38.7862 76.2695 42.8595 74.8619 55.4837 70.3842C57.2958 69.7403 61.9531 68.093 65.8167 66.7153C69.6954 65.3525 73.1247 64.0646 73.4692 63.8699C74.2928 63.3907 75.1314 62.4323 75.6106 61.414C75.9401 60.7101 76 60.3657 76 59.2276C76 58.0745 75.9401 57.76 75.5957 57.0262C74.5174 54.72 72.1513 53.462 69.7553 53.8963C69.2311 54.0012 63.9898 55.2441 58.1044 56.6518L47.397 59.2425L47.3222 58.1044C47.2323 56.8165 46.828 55.8731 46.0493 55.0644C45.57 54.5702 41.2122 52.0244 31.1038 46.3487C29.2319 45.3005 27.2402 44.2672 26.6861 44.0725C25.4282 43.6083 23.2717 43.4885 21.9239 43.788ZM26.0571 45.5251C26.8209 45.7797 31.0889 48.1308 42.4252 54.5702C45.2406 56.1576 45.9444 57.0262 45.7947 58.7783C45.615 60.9198 43.3986 62.1178 41.1673 61.3091C38.3968 60.3208 24.0804 55.5586 23.8258 55.5586C23.6611 55.5586 23.4065 55.7233 23.2717 55.933C23.0471 56.2774 23.0471 56.3373 23.2717 56.6818C23.4065 56.8914 23.5413 57.0561 23.5563 57.0561C23.5862 57.0561 27.7044 58.4488 32.7212 60.1411C41.6615 63.1511 41.8711 63.226 42.8595 63.1511C44.1025 63.0762 45.2855 62.5221 46.0493 61.6835L46.5884 61.0845L55.9031 58.8382C70.9233 55.2142 70.2195 55.3789 71.0731 55.4538C72.0315 55.5586 72.9001 55.9779 73.4991 56.6818C74.173 57.4455 74.4276 58.1493 74.4276 59.2575C74.4276 60.9348 73.4991 62.2526 71.8518 62.8666C68.8568 63.9897 38.9659 74.5324 38.1872 74.742C36.8544 75.1015 34.7878 75.1015 33.455 74.742C32.8859 74.5923 28.5431 72.975 23.8108 71.133C19.0786 69.306 15.0203 67.7336 14.7957 67.6587C14.3764 67.5089 14.3764 67.5089 14.3764 66.0264C14.3764 65.2177 14.4363 64.5438 14.5111 64.5438C14.571 64.5438 16.0985 65.038 17.8956 65.652C21.3848 66.8351 21.6694 66.865 21.9239 66.1312C22.0437 65.8167 22.0138 65.682 21.8191 65.4723C21.6694 65.3375 19.9622 64.6786 18.0004 64.0197L14.4512 62.8217L14.4063 56.1426L14.3764 49.4786L17.5661 47.6666C19.3182 46.6632 21.1602 45.7048 21.6544 45.5401C22.8674 45.1208 24.8441 45.1208 26.0571 45.5251ZM12.4445 47.1574C12.789 47.427 12.8039 47.5318 12.8039 49.1491V50.8414H7.18818H1.57241V49.1491C1.57241 46.6932 1.12315 46.8729 7.18818 46.8729C11.8006 46.8729 12.1151 46.8879 12.4445 47.1574ZM12.8489 62.0729C12.8638 68.677 12.8339 71.7769 12.7141 72.0465C12.6392 72.2711 12.3846 72.5107 12.1899 72.6155C11.6658 72.8402 2.71054 72.8402 2.1864 72.6155C1.97675 72.5107 1.73714 72.2412 1.64729 71.9866C1.48256 71.4774 1.42266 52.6833 1.60236 52.5186C1.66227 52.4587 4.1931 52.4287 7.24808 52.4437L12.8039 52.4886L12.8489 62.0729Z" fill="white"/>
<path d="M5.57068 63.7352C2.83019 65.0979 3.05482 69.0814 5.94507 70.2345C6.24458 70.3393 6.84359 70.3992 7.45758 70.3543C8.71551 70.2944 9.52418 69.8152 10.1831 68.7819C12.1149 65.7419 8.80536 62.1178 5.57068 63.7352ZM7.93679 65.083C9.47926 65.697 9.53916 67.9283 8.04162 68.6321C7.3827 68.9466 6.99334 68.9466 6.33443 68.6321C4.86684 67.9433 4.88182 65.8018 6.36438 65.1279C7.09817 64.7835 7.18802 64.7835 7.93679 65.083Z" fill="white"/>
</svg>
