<svg width="77" height="77" viewBox="0 0 77 77" fill="none" xmlns="http://www.w3.org/2000/svg">
<g clip-path="url(#clip0_385_295)">
<path d="M29.1217 18.3225H30.1503V32.079C30.1503 32.7227 30.6725 33.2449 31.3162 33.2449H50.334C50.9776 33.2449 51.4998 32.7227 51.4998 32.079V18.3225H52.5285C53.0314 18.3225 53.4777 18.0025 53.6354 17.526C53.7954 17.0496 53.6305 16.5226 53.2287 16.2218L41.5752 7.50159C41.1589 7.19118 40.5935 7.18878 40.1796 7.49918L28.4251 16.2194C28.0208 16.5202 27.856 17.0448 28.0136 17.5236C28.1724 18.0001 28.6188 18.3225 29.1217 18.3225ZM42.5534 30.9096H39.3085V26.8394C39.3085 25.9491 40.0388 25.2224 40.9376 25.2224C41.3647 25.2224 41.7665 25.3897 42.0817 25.7013C42.3801 25.9948 42.5546 26.4087 42.5546 26.8382L42.5534 30.9096ZM40.8738 9.891L49.0226 15.9884H32.6541L40.8738 9.891ZM32.4844 18.3225H49.1657V30.9108H44.8862V26.8406C44.8862 25.7855 44.4567 24.7628 43.718 24.0446C42.9733 23.2998 41.9867 22.8908 40.9352 22.8908C38.7503 22.8908 36.9733 24.663 36.9733 26.8406V30.9108H32.4844V18.3225ZM7.93825 39.6659H29.1217C29.7653 39.6659 30.2899 39.1438 30.2899 38.5001C30.2899 37.8564 29.7653 37.3319 29.1217 37.3319H7.93825C7.29458 37.3319 6.77002 37.8564 6.77002 38.5001C6.77002 39.1438 7.29458 39.6659 7.93825 39.6659ZM7.93825 47.7967H29.1217C29.7653 47.7967 30.2899 47.2745 30.2899 46.6284C30.2899 45.9847 29.7653 45.4626 29.1217 45.4626H7.93825C7.29458 45.4626 6.77002 45.9847 6.77002 46.6284C6.77002 47.2745 7.29458 47.7967 7.93825 47.7967ZM30.2899 54.7591C30.2899 54.1155 29.7653 53.5933 29.1217 53.5933H7.93825C7.29458 53.5933 6.77002 54.1155 6.77002 54.7591C6.77002 55.4052 7.29458 55.9274 7.93825 55.9274H29.1217C29.7653 55.9262 30.2899 55.4052 30.2899 54.7591Z" fill="#EC6825"/>
<path d="M75.5153 19.4715L73.8911 17.8473C71.983 15.9415 68.9535 15.8645 67.138 17.6776L61.4556 23.36V5.22408C61.4556 2.60367 59.3249 0.475342 56.7069 0.475342H22.869C22.8449 0.475342 22.8269 0.484967 22.8028 0.487373C22.6945 0.492186 22.5887 0.512639 22.4852 0.551139C22.4527 0.56317 22.419 0.570389 22.389 0.586029C22.2626 0.642576 22.1423 0.714764 22.0437 0.815826L0.340484 22.519C0.239422 22.6177 0.169641 22.7344 0.113094 22.8595C0.09625 22.8944 0.0878281 22.9329 0.0733906 22.9702C0.0409063 23.0688 0.0216563 23.1675 0.0144375 23.2685C0.0120312 23.2938 0 23.3179 0 23.3431V71.7761C0 74.3965 2.12953 76.5249 4.74873 76.5249H56.7069C59.3249 76.5249 61.4556 74.3953 61.4556 71.7761V40.4552L72.6615 29.2493C72.6639 29.2493 72.6639 29.2469 72.6639 29.2469L75.6838 26.2246C77.5005 24.4103 77.4259 21.3796 75.5153 19.4715ZM12.8422 13.3163L21.7008 4.45769V19.7602C21.7008 21.0921 20.618 22.1761 19.2849 22.1761H3.98355L12.8422 13.3163ZM59.1228 71.7761C59.1228 73.108 58.04 74.192 56.7069 74.192H4.74873C3.41688 74.192 2.33286 73.1092 2.33286 71.7761V24.509H19.2849C21.9029 24.509 24.0336 22.3794 24.0336 19.7602V2.80579H56.7057C58.0375 2.80579 59.1216 3.89101 59.1216 5.22408V25.694L32.7779 52.0401C32.6396 52.176 32.5385 52.3481 32.482 52.5358L29.6077 62.3063C29.4874 62.7154 29.6005 63.1594 29.9013 63.4601C30.1226 63.6839 30.421 63.803 30.7266 63.803C30.8373 63.803 30.948 63.7862 31.0551 63.7537L40.828 60.8794C41.0157 60.8253 41.1854 60.7242 41.3237 60.5859L59.1216 42.788L59.1228 71.7761ZM34.3649 54.409L38.9536 59.0002L32.4519 60.9131L34.3649 54.409ZM59.4753 39.1366C59.4681 39.1414 59.4632 39.1486 59.456 39.1534L40.9315 57.6791L35.6847 52.4299L64.9399 23.1747L66.7398 24.9746L60.7001 31.0119C60.2441 31.4678 60.2441 32.2078 60.7001 32.6613C60.9275 32.8887 61.227 33.0042 61.5254 33.0042C61.8238 33.0042 62.1222 32.8887 62.3507 32.6613L68.3904 26.6241L70.1879 28.4239L59.4753 39.1366ZM74.0343 24.5751L71.8374 26.7745L66.5906 21.5252L68.7875 19.3283C69.6922 18.4236 71.243 18.4994 72.2416 19.4979L73.8659 21.1222C74.8645 22.1196 74.9415 23.6704 74.0343 24.5751Z" fill="#EC6825"/>
</g>
<defs>
<clipPath id="clip0_385_295">
<rect width="77" height="77" fill="white"/>
</clipPath>
</defs>
</svg>
