<svg width="29" height="30" viewBox="0 0 29 30" fill="none" xmlns="http://www.w3.org/2000/svg">
<path d="M13.6078 0.361954C17.2773 0.133188 20.7542 1.21782 23.5991 3.55812C26.6038 6.02978 28.5645 9.48041 28.9297 13.37C29.2911 17.2205 28.2638 21.2197 25.7522 24.2092C23.0657 27.4063 19.5575 29.3147 15.3864 29.688C11.5927 29.853 8.0299 28.7209 5.10399 26.2846C2.11682 23.7972 0.378032 20.2391 0.0564303 16.3783C-0.274829 12.402 0.850946 8.45788 3.4706 5.41635C6.0701 2.39841 9.65776 0.642865 13.6078 0.361954Z" fill="white"/>
<path d="M13.9808 6.7722C15.2265 6.67983 16.4068 7.00398 17.4182 7.74258C18.5261 8.55183 19.3525 9.88264 19.5581 11.2412C20.0892 14.7523 16.6288 19.3885 14.6503 22.1104L14.4733 22.2142C14.4426 22.192 14.4112 22.1705 14.3809 22.1475C13.9266 21.8026 13.4733 21.0161 13.1388 20.5445C11.6441 18.4369 9.54992 15.5134 9.20598 12.9015C9.01317 11.4365 9.37867 9.93742 10.2952 8.76789C11.2168 7.59192 12.5183 6.96009 13.9808 6.7722Z" fill="#584696"/>
<path d="M13.9253 9.05639C14.6703 9.00127 15.2862 9.10839 15.9255 9.51759C16.6084 9.95471 17.1601 10.6684 17.3244 11.4709C17.4795 12.2283 17.2806 13.0604 16.8521 13.6971C16.3534 14.4376 15.6541 14.7971 14.8014 14.9685C14.1916 15.0046 13.6569 15.0123 13.0894 14.7415C12.3584 14.3926 11.819 13.6835 11.569 12.9238C11.5529 12.8753 11.5382 12.8265 11.5248 12.7773C11.5112 12.728 11.499 12.6785 11.4881 12.6287C11.4773 12.5788 11.4677 12.5287 11.4593 12.4783C11.4511 12.4279 11.4441 12.3774 11.4384 12.3267C11.4328 12.2759 11.4285 12.225 11.4254 12.1741C11.4225 12.1232 11.4209 12.0722 11.4205 12.0211C11.4201 11.9701 11.421 11.9191 11.4234 11.868C11.4257 11.8171 11.4293 11.7662 11.4343 11.7154C11.4393 11.6646 11.4455 11.614 11.4532 11.5635C11.4608 11.513 11.4697 11.4627 11.4799 11.4127C11.4902 11.3627 11.5017 11.313 11.5145 11.2636C11.5273 11.2142 11.5414 11.1651 11.5568 11.1164C11.5721 11.0678 11.5887 11.0196 11.6067 10.9718C11.6245 10.924 11.6437 10.8766 11.664 10.8298C11.6843 10.783 11.7058 10.7368 11.7286 10.691C11.7513 10.6454 11.7753 10.6004 11.8004 10.5559C12.2753 9.70895 13.0234 9.30799 13.9253 9.05639Z" fill="white"/>
</svg>
