<svg width="29" height="29" viewBox="0 0 29 29" fill="none" xmlns="http://www.w3.org/2000/svg">
<path d="M13.6006 0.0474468C13.6216 0.0451098 13.6424 0.0419797 13.6635 0.0402458C17.3218 -0.238237 20.8489 0.939322 23.7027 3.23688C23.793 3.30955 23.8824 3.38335 23.971 3.45825C24.0595 3.53322 24.1471 3.60921 24.2338 3.68619C24.3205 3.76327 24.4062 3.84137 24.491 3.92053C24.5758 3.99969 24.6596 4.0799 24.7424 4.16113C24.8252 4.24229 24.907 4.32446 24.9877 4.40768C25.0686 4.49091 25.1484 4.57512 25.2271 4.66035C25.3058 4.74546 25.3835 4.83155 25.46 4.91863C25.5367 5.0057 25.6123 5.09375 25.6867 5.18271C25.7612 5.27155 25.8346 5.36138 25.9068 5.45211C25.979 5.54284 26.0501 5.63443 26.1202 5.72682C26.1902 5.81932 26.2591 5.91269 26.3269 6.00685C26.3945 6.10093 26.4611 6.19588 26.5265 6.29174C26.5919 6.38748 26.6562 6.48405 26.7193 6.58149C26.7822 6.67878 26.8441 6.7769 26.9046 6.87577C26.9653 6.97464 27.0248 7.07426 27.083 7.17457C27.141 7.27491 27.198 7.37593 27.2538 7.47759C27.3095 7.57928 27.3639 7.68163 27.4171 7.78468C27.4703 7.88785 27.5222 7.99155 27.5729 8.09585C27.6236 8.20014 27.673 8.30508 27.7211 8.41062C27.7692 8.51617 27.8159 8.62228 27.8614 8.72899C27.9069 8.83566 27.9511 8.9429 27.994 9.05063C28.0369 9.15836 28.0785 9.26661 28.1187 9.3754C28.1589 9.48418 28.1978 9.59349 28.2354 9.7033C28.2729 9.81302 28.3091 9.92317 28.3439 10.0337C28.3788 10.1444 28.4122 10.2555 28.4444 10.3669C28.4764 10.4783 28.5071 10.5901 28.5365 10.7023C28.5659 10.8146 28.594 10.9271 28.6206 11.0399C28.6472 11.1528 28.6724 11.266 28.6963 11.3795C28.7202 11.493 28.7426 11.6068 28.7636 11.7208C28.7846 11.8349 28.8044 11.9492 28.8227 12.0637C28.841 12.1782 28.8578 12.2929 28.8733 12.4079C28.8887 12.5229 28.9027 12.6381 28.9153 12.7533C28.9283 12.8743 28.9397 12.9954 28.9497 13.1166C28.9598 13.2377 28.9683 13.3591 28.9752 13.4806C28.9822 13.602 28.9878 13.7235 28.9918 13.8451C28.9958 13.9667 28.9983 14.0883 28.9995 14.21C29.0005 14.3316 29 14.4532 28.998 14.5748C28.9962 14.6964 28.9928 14.8181 28.9879 14.9397C28.983 15.0612 28.9765 15.1826 28.9686 15.304C28.9607 15.4254 28.9514 15.5467 28.9406 15.6679C28.9297 15.789 28.9174 15.91 28.9037 16.0309C28.8898 16.1517 28.8745 16.2724 28.8578 16.3929C28.8411 16.5133 28.8228 16.6336 28.8031 16.7536C28.7834 16.8737 28.7622 16.9935 28.7396 17.113C28.7169 17.2325 28.6929 17.3517 28.6673 17.4706C28.6418 17.5895 28.6148 17.7081 28.5863 17.8264C28.5578 17.9447 28.5279 18.0626 28.4967 18.1801C28.4653 18.2976 28.4325 18.4148 28.3983 18.5315C28.3641 18.6483 28.3284 18.7646 28.2914 18.8803C28.2543 18.9962 28.2158 19.1116 28.176 19.2265C28.136 19.3415 28.0947 19.4559 28.0521 19.5698C28.0094 19.6837 27.9653 19.797 27.9199 19.9099C27.8744 20.0227 27.8276 20.135 27.7794 20.2467C27.7312 20.3583 27.6816 20.4694 27.6306 20.5799C27.5797 20.6904 27.5275 20.8002 27.4738 20.9094C27.4202 21.0185 27.3653 21.127 27.3089 21.235C27.2526 21.3427 27.1951 21.4498 27.1362 21.5563C27.0773 21.6627 27.0171 21.7684 26.9556 21.8734C26.8941 21.9784 26.8314 22.0826 26.7673 22.186C26.7033 22.2894 26.638 22.392 26.5715 22.4939C26.5049 22.5957 26.437 22.6967 26.3681 22.7968C26.299 22.8969 26.2288 22.9962 26.1574 23.0947C26.0859 23.1931 26.0132 23.2907 25.9393 23.3873C25.8654 23.484 25.7904 23.5798 25.7143 23.6746C23.0842 26.8934 19.4786 28.515 15.4089 28.9341C15.3921 28.9358 15.3755 28.9378 15.3588 28.9391C11.8923 29.1747 8.15079 28.1397 5.47151 25.8836C2.28366 23.1991 0.375032 19.5579 0.0432131 15.3999C-0.248387 11.7437 0.945118 7.87639 3.3409 5.08384C5.98471 2.00206 9.6025 0.359552 13.6006 0.0474468Z" fill="white"/>
<path d="M6.85719 9.61914C7.52743 10.1158 8.14644 10.8119 8.74378 11.3957L11.6941 14.268C10.8799 15.1287 10.0612 15.9851 9.23813 16.8373C8.5426 17.5413 7.85092 18.2477 7.1252 18.9209L7.118 18.9991L7.01521 18.9105L6.93575 19.0077L6.97047 19.0472L6.87095 19.1057C6.81539 19.0314 6.76677 18.9654 6.73141 18.8788C6.41007 18.09 6.45466 11.5171 6.60359 10.4148C6.64257 10.1267 6.73548 9.88164 6.85719 9.61914Z" fill="#584696"/>
<path d="M22.4084 9.61035L22.6105 9.80576C22.8552 10.4271 22.7674 18.4754 22.5104 19.1716C22.2741 19.1383 20.4863 17.2724 20.1814 16.9786C19.2701 16.0351 18.3701 15.0759 17.3975 14.1948C19.1537 12.7611 20.7094 11.1064 22.4084 9.61035Z" fill="#584696"/>
<path d="M16.8487 14.623C16.9213 14.6706 16.9911 14.7171 17.0593 14.7709C17.9385 15.4638 21.8082 18.9468 21.7974 19.9013C21.7964 19.9919 21.7694 20.1291 21.693 20.1898C21.4775 20.3611 21.0468 20.3882 20.7819 20.4081C19.9507 20.4705 19.0904 20.3865 18.2552 20.3918L11.2052 20.4104C10.3211 20.4092 8.48383 20.609 7.72509 20.2947C7.56444 20.1244 7.39998 19.9292 7.44506 19.6717C7.51514 19.2713 11.5638 15.2952 12.16 14.755C12.9025 15.4319 13.471 16.0025 14.4796 16.2226C15.4647 15.9818 16.1257 15.2842 16.8487 14.623Z" fill="#584696"/>
<path d="M9.07476 8.57489C10.7478 8.52498 20.6886 8.3914 21.3949 8.63449C21.6196 8.71176 21.7467 8.85959 21.8372 9.07535C21.7614 9.76213 18.5549 12.4386 17.8704 13.016C16.9081 13.79 15.9098 15.006 14.7832 15.4968C14.5681 15.5905 14.4331 15.5961 14.2144 15.5021C13.3223 15.1185 7.70836 9.86542 7.47447 9.17675C7.43757 9.068 7.52437 8.97712 7.57304 8.88153C8.02174 8.55393 8.54302 8.59038 9.07476 8.57489Z" fill="#584696"/>
</svg>
