<svg width="30" height="31" viewBox="0 0 30 31" fill="none" xmlns="http://www.w3.org/2000/svg">
<path d="M13.7972 0.0668164C13.8308 0.0626528 13.8644 0.0574668 13.8983 0.0542852C17.5278 -0.286342 21.4524 0.996351 24.2305 3.3309C27.5361 6.10858 29.54 9.70445 29.8822 14.0394C29.8932 14.1638 29.9026 14.2884 29.9105 14.4131C29.9185 14.5377 29.9248 14.6624 29.9296 14.7872C29.9345 14.9121 29.9378 15.0369 29.9395 15.1618C29.9412 15.2867 29.9414 15.4116 29.94 15.5365C29.9387 15.6613 29.9358 15.7862 29.9313 15.9111C29.9269 16.0359 29.9209 16.1606 29.9134 16.2852C29.9059 16.41 29.8968 16.5346 29.8862 16.6591C29.8755 16.7835 29.8633 16.9078 29.8496 17.0319C29.8359 17.156 29.8207 17.28 29.804 17.4038C29.7873 17.5276 29.769 17.6511 29.7492 17.7745C29.7293 17.8978 29.708 18.0209 29.6851 18.1436C29.6622 18.2664 29.6378 18.3889 29.6119 18.5112C29.5861 18.6333 29.5587 18.7552 29.5298 18.8767C29.5008 18.9982 29.4704 19.1193 29.4385 19.24C29.4066 19.3608 29.3732 19.4811 29.3382 19.6011C29.3034 19.721 29.267 19.8405 29.2292 19.9596C29.1913 20.0786 29.152 20.1972 29.1113 20.3152C29.0704 20.4332 29.0281 20.5507 28.9844 20.6678C28.9408 20.7848 28.8957 20.9013 28.8491 21.0171C28.8025 21.133 28.7545 21.2483 28.705 21.3631C28.6557 21.4777 28.6048 21.5918 28.5526 21.7053C28.5003 21.8187 28.4466 21.9316 28.3915 22.0437C28.3365 22.1558 28.2801 22.2672 28.2223 22.3779C28.1645 22.4886 28.1053 22.5986 28.0448 22.7078C27.9842 22.8171 27.9224 22.9256 27.8593 23.0334C27.796 23.1411 27.7314 23.248 27.6656 23.354C27.5997 23.4602 27.5326 23.5656 27.4641 23.67C27.3956 23.7744 27.3259 23.878 27.2549 23.9809C27.1838 24.0836 27.1115 24.1854 27.0379 24.2864C26.9644 24.3873 26.8897 24.4874 26.8136 24.5865C26.7376 24.6855 26.6604 24.7836 26.5819 24.8809C26.5035 24.9781 26.4238 25.0743 26.343 25.1695C26.265 25.2613 26.1861 25.3521 26.1059 25.4419C26.0258 25.5317 25.9446 25.6206 25.8622 25.7084C25.7799 25.7962 25.6965 25.8831 25.6119 25.9689C25.5275 26.0547 25.442 26.1394 25.3555 26.2231C25.2689 26.3067 25.1813 26.3893 25.0927 26.4709C25.0041 26.5524 24.9146 26.6328 24.8241 26.7122C24.7334 26.7915 24.6418 26.8696 24.5494 26.9466C24.4569 27.0236 24.3635 27.0995 24.2691 27.1743C24.1747 27.2491 24.0794 27.3227 23.9832 27.3951C23.887 27.4675 23.7899 27.5386 23.692 27.6086C23.5941 27.6786 23.4953 27.7474 23.3956 27.815C23.296 27.8826 23.1955 27.9489 23.0942 28.0141C22.9929 28.0791 22.8909 28.143 22.788 28.2055C22.6852 28.2681 22.5816 28.3293 22.4771 28.3894C22.3728 28.4495 22.2677 28.5082 22.162 28.5656C22.0561 28.623 21.9496 28.6791 21.8425 28.734C21.7352 28.7888 21.6273 28.8423 21.5189 28.8944C21.4104 28.9465 21.3013 28.9973 21.1915 29.0468C21.0818 29.0961 20.9714 29.1442 20.8605 29.1909C20.7495 29.2377 20.638 29.283 20.5259 29.3271C20.4138 29.3711 20.3012 29.4137 20.1881 29.4549C20.075 29.4961 19.9614 29.5358 19.8473 29.5742C19.7332 29.6127 19.6186 29.6497 19.5036 29.6852C19.3886 29.7208 19.2732 29.7549 19.1574 29.7878C19.0414 29.8205 18.9251 29.8517 18.8085 29.8815C18.6919 29.9114 18.5749 29.9399 18.4576 29.9669C18.3403 29.9939 18.2226 30.0194 18.1047 30.0434C17.9868 30.0675 17.8685 30.0902 17.75 30.1114C17.6315 30.1325 17.5128 30.1522 17.3937 30.1704C17.2747 30.1887 17.1555 30.2055 17.0361 30.2208C16.9166 30.236 16.797 30.2498 16.6773 30.2622C16.5575 30.2746 16.4376 30.2854 16.3176 30.2948C16.2958 30.2972 16.2739 30.3 16.2521 30.3021C12.4189 30.6628 8.37223 29.3395 5.39544 26.928C2.39598 24.4984 0.472805 20.7636 0.0900316 16.9365C0.0761269 16.8085 0.0638282 16.6803 0.0531836 16.552C0.0425391 16.4236 0.0335063 16.2952 0.0261218 16.1667C0.0186196 16.0382 0.0127671 15.9095 0.00852495 15.7809C0.00428282 15.6521 0.00161174 15.5234 0.000551209 15.3947C-0.000548602 15.2659 1.91716e-06 15.1371 0.00216226 15.0083C0.0043226 14.8795 0.00813327 14.7509 0.013593 14.6223C0.018935 14.4936 0.0258876 14.3651 0.0344504 14.2366C0.0430525 14.108 0.0532662 13.9797 0.0650891 13.8515C0.0768335 13.7233 0.0901882 13.5952 0.105193 13.4673C0.120197 13.3394 0.136773 13.2117 0.15492 13.0842C0.173066 12.9567 0.192783 12.8295 0.214111 12.7026C0.2354 12.5755 0.258338 12.4488 0.282888 12.3224C0.307359 12.196 0.333363 12.0699 0.360976 11.944C0.388707 11.8183 0.417931 11.6929 0.448687 11.5679C0.479442 11.4428 0.511728 11.3181 0.545508 11.1939C0.579406 11.0697 0.614838 10.9459 0.651799 10.8226C0.688761 10.6992 0.727214 10.5764 0.7672 10.454C0.807186 10.3315 0.84878 10.2096 0.891908 10.0883C0.934958 9.96692 0.979503 9.84613 1.02558 9.72594C1.07165 9.60563 1.11922 9.48598 1.16824 9.36697C1.21726 9.24784 1.26777 9.12937 1.31985 9.01157C1.37182 8.89386 1.42528 8.77676 1.48027 8.66026C1.53514 8.54376 1.59151 8.42801 1.64933 8.31304C1.70715 8.19795 1.76638 8.08361 1.82702 7.97005C1.88779 7.8565 1.94989 7.74369 2.01336 7.63163C2.07684 7.51956 2.14165 7.40832 2.20783 7.29787C2.27414 7.18746 2.34177 7.07787 2.41079 6.96915C2.47968 6.86042 2.54999 6.75256 2.62172 6.64557C2.69332 6.53857 2.7663 6.43252 2.84066 6.32733C2.91501 6.22218 2.99062 6.11793 3.06757 6.01467C3.1444 5.91136 3.2226 5.80908 3.30214 5.70778C3.38161 5.60644 3.46228 5.50612 3.54422 5.40683C6.1946 2.17763 9.6693 0.481248 13.7972 0.0668164Z" fill="white"/>
<path d="M14.8267 12.031C15.5057 11.9537 16.0541 11.9752 16.6897 12.2502C17.5319 12.6146 18.2768 13.3413 18.5834 14.2153C18.8053 14.8473 18.7604 15.4665 18.4871 16.0705C18.3298 16.0656 18.1004 16.049 17.9541 15.9957C17.4334 15.8056 17.4139 14.4409 16.9334 13.9623C16.3338 13.3648 15.0115 13.3775 14.6692 12.7346C14.6751 12.4571 14.7157 12.2843 14.8267 12.031Z" fill="#584696"/>
<path d="M14.9826 9.83031C15.7703 9.77147 16.5274 9.81856 17.2789 10.0727C18.688 10.5493 19.8191 11.5235 20.4661 12.8633C21.105 14.1868 21.144 15.5363 20.6663 16.9102C20.315 16.7888 19.9795 16.5954 19.6474 16.4283C19.7025 16.1078 19.7589 15.7846 19.773 15.4592C19.8211 14.3415 19.3936 13.1912 18.608 12.3929C18.0068 11.7822 17.0357 11.2108 16.1822 11.0789C15.8648 11.0298 15.5414 11.0791 15.223 11.0643C14.9888 11.0533 14.8676 11.0559 14.7067 10.8817C14.6431 10.5003 14.7786 10.1456 14.9826 9.83031Z" fill="#584696"/>
<path d="M14.9965 7.44394C16.8768 7.41181 18.7972 7.87365 20.2879 9.05721C21.8513 10.2985 22.9406 12.1577 23.1496 14.1528C23.2727 15.3274 23.1868 16.7842 22.4259 17.7343C22.2657 17.7093 22.1007 17.6852 21.9535 17.6135C21.8054 17.5413 21.6361 17.4249 21.5935 17.2539C21.4626 16.7284 21.9054 15.8584 21.9494 15.2979C22.0044 14.5994 21.8454 13.7901 21.6204 13.1304C20.8375 10.833 18.9635 9.22497 16.5595 8.88686C16.1109 8.82377 15.2511 8.8735 14.8825 8.62879C14.7642 8.55039 14.7034 8.50129 14.6779 8.36028C14.615 8.01176 14.8185 7.72498 14.9965 7.44394Z" fill="#584696"/>
<path d="M9.56077 8.27148C9.66333 8.29089 9.70831 8.29643 9.80108 8.32219C10.5598 8.53281 12.3672 11.0298 12.7855 11.7809C12.1902 12.688 11.2182 13.2382 10.6292 14.1594C11.3899 15.9636 13.7806 18.235 15.4182 19.2348C16.734 20.038 17.0012 18.6482 18.0946 18.4144C18.4252 18.3437 18.7124 18.459 18.9881 18.6347C19.6879 19.0812 20.664 20.0934 20.8081 20.9222C20.8772 21.3193 20.7042 21.6163 20.4811 21.9271C20.0678 22.3438 19.5792 22.8089 19.0199 23.0143C18.1556 23.3319 17.0111 22.8741 16.2229 22.499C12.7794 20.8598 8.75941 16.8289 7.51489 13.2176C7.13342 12.1108 7.00803 10.9579 7.57047 9.88019C8.00144 9.05447 8.68843 8.55154 9.56077 8.27148Z" fill="#584696"/>
</svg>
