<svg width="30" height="32" viewBox="0 0 30 32" fill="none" xmlns="http://www.w3.org/2000/svg">
<path d="M13.7972 1.0385C13.8308 1.03433 13.8644 1.02915 13.8983 1.02596C17.5278 0.685338 21.4524 1.96803 24.2305 4.30257C27.5361 7.08026 29.54 10.6761 29.8822 15.0111C29.8932 15.1355 29.9026 15.2601 29.9105 15.3847C29.9185 15.5094 29.9248 15.6341 29.9296 15.7589C29.9345 15.8837 29.9378 16.0086 29.9395 16.1335C29.9412 16.2584 29.9414 16.3832 29.94 16.5082C29.9387 16.633 29.9358 16.7579 29.9313 16.8828C29.9269 17.0076 29.9209 17.1323 29.9134 17.2569C29.9059 17.3817 29.8968 17.5063 29.8862 17.6307C29.8755 17.7552 29.8633 17.8795 29.8496 18.0036C29.8359 18.1277 29.8207 18.2517 29.804 18.3754C29.7873 18.4992 29.769 18.6228 29.7492 18.7461C29.7293 18.8695 29.708 18.9925 29.6851 19.1153C29.6622 19.2381 29.6378 19.3606 29.6119 19.4829C29.5861 19.605 29.5587 19.7269 29.5298 19.8484C29.5008 19.9699 29.4704 20.091 29.4385 20.2117C29.4066 20.3325 29.3732 20.4528 29.3382 20.5728C29.3034 20.6927 29.267 20.8122 29.2292 20.9313C29.1913 21.0503 29.152 21.1688 29.1113 21.2869C29.0704 21.4049 29.0281 21.5224 28.9844 21.6395C28.9408 21.7565 28.8957 21.873 28.8491 21.9888C28.8025 22.1047 28.7545 22.22 28.705 22.3347C28.6557 22.4494 28.6048 22.5635 28.5526 22.6769C28.5003 22.7904 28.4466 22.9032 28.3915 23.0154C28.3365 23.1274 28.2801 23.2388 28.2223 23.3496C28.1645 23.4603 28.1053 23.5703 28.0448 23.6795C27.9842 23.7887 27.9224 23.8973 27.8593 24.005C27.796 24.1128 27.7314 24.2196 27.6656 24.3257C27.5997 24.4319 27.5326 24.5372 27.4641 24.6416C27.3956 24.7461 27.3259 24.8497 27.2549 24.9525C27.1838 25.0552 27.1115 25.1571 27.0379 25.258C26.9644 25.359 26.8897 25.459 26.8136 25.5582C26.7376 25.6572 26.6604 25.7553 26.5819 25.8526C26.5035 25.9498 26.4238 26.0459 26.343 26.1412C26.265 26.233 26.1861 26.3238 26.1059 26.4136C26.0258 26.5034 25.9446 26.5923 25.8622 26.6801C25.7799 26.7679 25.6965 26.8547 25.6119 26.9406C25.5275 27.0263 25.442 27.1111 25.3555 27.1947C25.2689 27.2784 25.1813 27.361 25.0927 27.4425C25.0041 27.524 24.9146 27.6045 24.8241 27.6838C24.7334 27.7632 24.6418 27.8413 24.5494 27.9182C24.4569 27.9953 24.3635 28.0712 24.2691 28.146C24.1747 28.2208 24.0794 28.2943 23.9832 28.3667C23.887 28.4391 23.7899 28.5103 23.692 28.5803C23.5941 28.6503 23.4953 28.7191 23.3956 28.7867C23.296 28.8543 23.1955 28.9206 23.0942 28.9857C22.9929 29.0508 22.8909 29.1146 22.788 29.1771C22.6852 29.2398 22.5816 29.301 22.4771 29.361C22.3728 29.4211 22.2677 29.4799 22.162 29.5373C22.0561 29.5947 21.9496 29.6508 21.8425 29.7057C21.7352 29.7605 21.6273 29.8139 21.5189 29.8661C21.4104 29.9181 21.3013 29.969 21.1915 30.0185C21.0818 30.0678 20.9714 30.1159 20.8605 30.1626C20.7495 30.2094 20.638 30.2547 20.5259 30.2987C20.4138 30.3428 20.3012 30.3854 20.1881 30.4266C20.075 30.4678 19.9614 30.5075 19.8473 30.5459C19.7332 30.5843 19.6186 30.6214 19.5036 30.6569C19.3886 30.6924 19.2732 30.7266 19.1574 30.7595C19.0414 30.7922 18.9251 30.8234 18.8085 30.8532C18.6919 30.8831 18.5749 30.9115 18.4576 30.9386C18.3403 30.9655 18.2226 30.991 18.1047 31.0151C17.9868 31.0392 17.8685 31.0619 17.75 31.0831C17.6315 31.1042 17.5128 31.1238 17.3937 31.1421C17.2747 31.1604 17.1555 31.1771 17.0361 31.1925C16.9166 31.2077 16.797 31.2215 16.6773 31.2339C16.5575 31.2463 16.4376 31.2571 16.3176 31.2665C16.2958 31.2689 16.2739 31.2717 16.2521 31.2738C12.4189 31.6344 8.37223 30.3112 5.39544 27.8997C2.39598 25.47 0.472805 21.7353 0.0900316 17.9082C0.0761269 17.7802 0.0638282 17.652 0.0531836 17.5236C0.0425391 17.3953 0.0335063 17.2669 0.0261218 17.1384C0.0186196 17.0099 0.0127671 16.8812 0.00852495 16.7525C0.00428282 16.6238 0.00161174 16.495 0.000551209 16.3664C-0.000548602 16.2376 1.91716e-06 16.1088 0.00216226 15.98C0.0043226 15.8512 0.00813327 15.7225 0.013593 15.594C0.018935 15.4653 0.0258876 15.3367 0.0344504 15.2083C0.0430525 15.0797 0.0532662 14.9513 0.0650891 14.8232C0.0768335 14.695 0.0901882 14.5669 0.105193 14.439C0.120197 14.311 0.136773 14.1834 0.15492 14.0559C0.173066 13.9284 0.192783 13.8012 0.214111 13.6743C0.2354 13.5472 0.258338 13.4205 0.282888 13.2941C0.307359 13.1677 0.333363 13.0416 0.360976 12.9157C0.388707 12.79 0.417931 12.6646 0.448687 12.5396C0.479442 12.4145 0.511728 12.2898 0.545508 12.1656C0.579406 12.0414 0.614838 11.9176 0.651799 11.7942C0.688761 11.6709 0.727214 11.548 0.7672 11.4257C0.807186 11.3032 0.84878 11.1813 0.891908 11.06C0.934958 10.9386 0.979503 10.8178 1.02558 10.6976C1.07165 10.5773 1.11922 10.4577 1.16824 10.3386C1.21726 10.2195 1.26777 10.1011 1.31985 9.98325C1.37182 9.86553 1.42528 9.74844 1.48027 9.63194C1.53514 9.51544 1.59151 9.39969 1.64933 9.28472C1.70715 9.16963 1.76638 9.05529 1.82702 8.94173C1.88779 8.82818 1.94989 8.71537 2.01336 8.6033C2.07684 8.49124 2.14165 8.38 2.20783 8.26955C2.27414 8.15914 2.34177 8.04955 2.41079 7.94083C2.47968 7.8321 2.54999 7.72424 2.62172 7.61725C2.69332 7.51025 2.7663 7.4042 2.84066 7.29901C2.91501 7.19386 2.99062 7.08961 3.06757 6.98635C3.1444 6.88304 3.2226 6.78076 3.30214 6.67946C3.38161 6.57812 3.46228 6.4778 3.54422 6.37851C6.1946 3.14931 9.6693 1.45293 13.7972 1.0385Z" fill="white"/>
<path d="M14.8267 13.0026C15.5057 12.9254 16.0541 12.9469 16.6897 13.2219C17.5319 13.5862 18.2768 14.313 18.5834 15.187C18.8053 15.819 18.7604 16.4382 18.4871 17.0422C18.3298 17.0373 18.1004 17.0206 17.9541 16.9673C17.4334 16.7773 17.4139 15.4126 16.9334 14.9339C16.3338 14.3365 15.0115 14.3492 14.6692 13.7062C14.6751 13.4288 14.7157 13.2559 14.8267 13.0026Z" fill="#584696"/>
<path d="M14.9826 10.802C15.7703 10.7431 16.5274 10.7902 17.2789 11.0444C18.688 11.5209 19.8191 12.4951 20.4661 13.835C21.105 15.1585 21.144 16.508 20.6663 17.8819C20.315 17.7604 19.9795 17.5671 19.6474 17.4C19.7025 17.0795 19.7589 16.7562 19.773 16.4309C19.8211 15.3132 19.3936 14.1629 18.608 13.3645C18.0068 12.7539 17.0357 12.1825 16.1822 12.0506C15.8648 12.0015 15.5414 12.0507 15.223 12.0359C14.9888 12.025 14.8676 12.0276 14.7067 11.8534C14.6431 11.472 14.7786 11.1172 14.9826 10.802Z" fill="#584696"/>
<path d="M14.9965 8.41562C16.8768 8.38349 18.7972 8.84533 20.2879 10.0289C21.8513 11.2701 22.9406 13.1294 23.1496 15.1245C23.2727 16.2991 23.1868 17.7558 22.4259 18.706C22.2657 18.681 22.1007 18.6569 21.9535 18.5852C21.8054 18.5129 21.6361 18.3966 21.5935 18.2255C21.4626 17.7001 21.9054 16.8301 21.9494 16.2696C22.0044 15.5711 21.8454 14.7618 21.6204 14.102C20.8375 11.8047 18.9635 10.1966 16.5595 9.85854C16.1109 9.79545 15.2511 9.84518 14.8825 9.60047C14.7642 9.52207 14.7034 9.47297 14.6779 9.33196C14.615 8.98344 14.8185 8.69666 14.9965 8.41562Z" fill="#584696"/>
<path d="M9.56077 9.24316C9.66333 9.26257 9.70831 9.26811 9.80108 9.29387C10.5598 9.50449 12.3672 12.0015 12.7855 12.7526C12.1902 13.6596 11.2182 14.2098 10.6292 15.1311C11.3899 16.9352 13.7806 19.2067 15.4182 20.2065C16.734 21.0097 17.0012 19.6199 18.0946 19.3861C18.4252 19.3154 18.7124 19.4306 18.9881 19.6064C19.6879 20.0529 20.664 21.0651 20.8081 21.8939C20.8772 22.291 20.7042 22.588 20.4811 22.8988C20.0678 23.3154 19.5792 23.7805 19.0199 23.986C18.1556 24.3035 17.0111 23.8458 16.2229 23.4707C12.7794 21.8315 8.75941 17.8006 7.51489 14.1893C7.13342 13.0825 7.00803 11.9296 7.57047 10.8519C8.00144 10.0262 8.68843 9.52322 9.56077 9.24316Z" fill="#584696"/>
</svg>
