<svg width="215" height="212" viewBox="0 0 215 212" fill="none" xmlns="http://www.w3.org/2000/svg">
<path d="M107.041 6C51.158 6 6.00008 50.6482 6 105.548C6 160.448 51.1579 205.096 107.041 205.096C162.924 205.096 208.082 160.447 208.082 105.548C208.082 89.8359 204.381 74.9646 197.791 61.7383L203.49 59.7197C210.276 73.5802 214.082 89.1255 214.082 105.548L214.073 106.912C213.333 164.576 165.696 211.096 107.041 211.096L105.657 211.087C47.6383 210.362 0.743645 164.122 0.00878906 106.912L0 105.548C8.36324e-05 47.2554 47.924 0 107.041 0V6Z" fill="#EC6825"/>
</svg>
