<svg width="215" height="212" viewBox="0 0 215 212" fill="none" xmlns="http://www.w3.org/2000/svg">
<path d="M107.959 6C52.0762 6 6.9183 50.6482 6.91821 105.548C6.91821 160.448 52.0761 205.096 107.959 205.096C163.842 205.096 209 160.448 209 105.548C209 75.0643 195.077 47.7415 173.126 29.4678L176.984 24.875C200.233 44.2362 215 73.1911 215 105.548L214.991 106.912C214.251 164.576 166.614 211.096 107.959 211.096L106.575 211.087C48.5565 210.362 1.66185 164.122 0.927002 106.912L0.918213 105.548C0.9183 47.2554 48.8422 0 107.959 0V6Z" fill="#EC6825"/>
</svg>
